# Blender v2.91.0 OBJ File: ''
# www.blender.org
mtllib Target Dummy Hitbox.mtl
o Target_Dummy_Hitbox_Cube.001
v -0.324471 -0.022081 -0.089490
v -0.324471 0.603123 -0.089490
v -0.324471 -0.022081 -0.527430
v -0.324471 0.603123 -0.527430
v 0.113470 -0.022081 -0.089490
v 0.113470 0.603123 -0.089490
v 0.113470 -0.022081 -0.527430
v 0.113470 0.603123 -0.527430
v -0.410008 0.603123 -0.003953
v -0.410008 0.603123 -0.612968
v 0.199007 0.603123 -0.003953
v 0.199007 0.603123 -0.612968
v -0.410008 1.800555 -0.003953
v -0.410008 1.800555 -0.612968
v 0.199007 1.800555 -0.003953
v 0.199007 1.800555 -0.612968
v -0.594050 2.487786 -0.102302
v -0.594050 2.487786 -0.514618
v 0.398874 2.484960 -0.114829
v 0.398874 2.484960 -0.502091
v -0.594050 2.704659 -0.102302
v -0.594050 2.704659 -0.514618
v 0.398874 2.724401 -0.114829
v 0.398874 2.724401 -0.502091
v -0.594050 1.800555 0.007485
v -0.594050 1.800555 -0.613670
v -0.420810 2.800173 0.006850
v -0.420810 2.800173 -0.623770
v -1.617406 2.487786 -0.102302
v -1.617406 2.487786 -0.514618
v -1.617406 2.704659 -0.102302
v -1.617406 2.704659 -0.514618
v 0.398874 1.800555 -0.613670
v 0.398874 1.800555 0.007485
v 0.225634 2.800173 -0.623770
v 0.225634 2.800173 0.006850
v 1.434433 2.484960 -0.502091
v 1.434433 2.484960 -0.114829
v 1.434433 2.724401 -0.502091
v 1.434433 2.724401 -0.114829
v -0.594050 2.800173 0.007485
v -0.594050 2.800173 -0.613670
v 0.398874 2.800173 -0.613670
v 0.398874 2.800173 0.007485
v -0.420810 3.615077 0.006850
v -0.420810 3.615077 -0.623770
v 0.225634 3.615077 -0.623770
v 0.225634 3.615077 0.006850
vt 0.375000 0.000000
vt 0.625000 0.000000
vt 0.625000 0.250000
vt 0.375000 0.250000
vt 0.625000 0.500000
vt 0.375000 0.500000
vt 0.625000 0.750000
vt 0.375000 0.750000
vt 0.625000 1.000000
vt 0.375000 1.000000
vt 0.125000 0.500000
vt 0.125000 0.750000
vt 0.625000 0.250000
vt 0.625000 0.500000
vt 0.625000 0.750000
vt 0.625000 0.500000
vt 0.625000 0.750000
vt 0.625000 0.000000
vt 0.625000 1.000000
vt 0.625000 1.000000
vt 0.625000 0.750000
vt 0.625000 1.000000
vt 0.625000 0.000000
vt 0.625000 0.250000
vt 0.625000 0.575458
vt 0.625000 0.575458
vt 0.625000 0.575458
vt 0.625000 0.575458
vt 0.625000 0.250000
vt 0.625000 0.500000
vt 0.625000 0.000000
vt 0.668619 0.705675
vt 0.668619 0.544325
vt 0.668619 0.544325
vt 0.668619 0.705675
vt 0.625000 0.177747
vt 0.625000 0.177747
vt 0.625000 0.177747
vt 0.625000 0.177747
vt 0.625000 0.750000
vt 0.625000 1.000000
vt 0.625000 0.250000
vt 0.625000 0.500000
vt 0.625000 0.072253
vt 0.625000 0.072253
vt 0.625000 0.000000
vt 0.625000 0.072253
vt 0.625000 0.072253
vt 0.625000 0.674542
vt 0.625000 0.674542
vt 0.625000 0.674542
vt 0.625000 0.674542
vt 0.831381 0.705675
vt 0.831381 0.544325
vt 0.875000 0.500000
vt 0.875000 0.750000
vt 0.831381 0.544325
vt 0.831381 0.705675
vn -1.0000 0.0000 0.0000
vn 0.0000 0.0000 -1.0000
vn 1.0000 0.0000 0.0000
vn 0.0000 0.0000 1.0000
vn 0.0000 -1.0000 0.0000
vn 0.0000 -1.0000 0.0002
vn 0.0000 1.0000 0.0000
vn 0.0000 1.0000 0.0005
usemtl None
s off
f 1/1/1 2/2/1 4/3/1 3/4/1
f 3/4/2 4/3/2 8/5/2 7/6/2
f 7/6/3 8/5/3 6/7/3 5/8/3
f 5/8/4 6/7/4 2/9/4 1/10/4
f 3/11/5 7/6/5 5/8/5 1/12/5
f 8/5/5 4/3/5 10/13/5 12/14/5
f 11/15/3 12/14/3 16/16/3 15/17/3
f 6/7/5 8/5/5 12/14/5 11/15/5
f 4/3/5 2/2/5 9/18/5 10/13/5
f 2/9/5 6/7/5 11/15/5 9/19/5
f 13/20/5 15/17/5 34/21/5 25/22/5
f 10/13/1 9/18/1 13/23/1 14/24/1
f 9/19/4 11/15/4 15/17/4 13/20/4
f 12/14/2 10/13/2 14/24/2 16/16/2
f 20/25/2 24/26/2 39/27/2 37/28/2
f 16/16/6 14/24/6 26/29/6 33/30/6
f 15/17/5 16/16/5 33/30/5 34/21/5
f 14/24/5 13/23/5 25/31/5 26/29/5
f 36/32/3 35/33/3 47/34/3 48/35/3
f 22/36/2 18/37/2 30/38/2 32/39/2
f 25/22/4 34/21/4 44/40/4 41/41/4
f 33/30/2 26/29/2 42/42/2 43/43/2
f 17/44/1 18/37/1 26/29/1 25/31/1
f 22/36/1 21/45/1 41/46/1 42/42/1
f 21/45/1 17/44/1 25/31/1 41/46/1
f 18/37/1 22/36/1 42/42/1 26/29/1
f 30/38/1 29/47/1 31/48/1 32/39/1
f 21/45/7 22/36/7 32/39/7 31/48/7
f 17/44/4 21/45/4 31/48/4 29/47/4
f 18/37/5 17/44/5 29/47/5 30/38/5
f 20/25/3 19/49/3 34/21/3 33/30/3
f 23/50/3 24/26/3 43/43/3 44/40/3
f 24/26/3 20/25/3 33/30/3 43/43/3
f 19/49/3 23/50/3 44/40/3 34/21/3
f 38/51/3 37/28/3 39/27/3 40/52/3
f 19/49/5 20/25/5 37/28/5 38/51/5
f 23/50/4 19/49/4 38/51/4 40/52/4
f 24/26/7 23/50/7 40/52/7 39/27/7
f 27/53/7 28/54/7 42/55/7 41/56/7
f 28/54/5 35/33/5 43/43/5 42/55/5
f 35/33/7 36/32/7 44/40/7 43/43/7
f 36/32/8 27/53/8 41/56/8 44/40/8
f 47/34/7 46/57/7 45/58/7 48/35/7
f 28/54/1 27/53/1 45/58/1 46/57/1
f 27/53/4 36/32/4 48/35/4 45/58/4
f 35/33/2 28/54/2 46/57/2 47/34/2
